<svg width="512" height="512" viewBox="0 0 512 512" fill="none" xmlns="http://www.w3.org/2000/svg">
<g clip-path="url(#clip0_1_123)">
<path d="M511.203 255.989C511.203 289.503 504.602 322.689 491.777 353.651C478.952 384.614 460.154 412.748 436.456 436.445C412.758 460.143 384.625 478.941 353.662 491.767C322.699 504.592 289.514 511.193 256 511.193C188.316 511.193 123.404 484.305 75.544 436.445C27.6841 388.585 0.796631 323.673 0.796631 255.989C0.796631 188.305 27.6841 123.393 75.544 75.5334C123.404 27.6735 188.316 0.786041 256 0.786041C289.514 0.786041 322.699 7.38707 353.662 20.2122C384.625 33.0374 412.758 51.8356 436.456 75.5334C460.154 99.2312 478.952 127.365 491.777 158.327C504.602 189.29 511.203 222.476 511.203 255.989ZM26.5241 254.736C25.8761 381.96 128.287 486.443 255.586 487.09C382.885 487.749 486.368 384.329 487.016 257.094C487.675 129.87 385.264 25.3875 257.965 24.7289C130.666 24.081 27.1827 127.501 26.5241 254.736Z" fill="#FFB200"/>
<path d="M257.965 24.7289C385.264 25.3875 487.675 129.87 487.016 257.094C486.368 384.329 382.885 487.749 255.586 487.09C128.287 486.442 25.8761 381.96 26.5241 254.736C27.1826 127.501 130.666 24.081 257.965 24.7289ZM404.724 343.412C377.828 343.943 351.842 339.287 326.766 329.443C306.98 321.675 289.556 310.546 274.494 296.057C274.419 295.985 274.361 295.898 274.325 295.801C274.289 295.704 274.275 295.601 274.284 295.498C274.293 295.395 274.325 295.295 274.378 295.206C274.431 295.117 274.503 295.042 274.589 294.984C286.879 286.624 302.388 281.249 317.174 277.914C347.576 271.052 378.891 269.437 410.152 270.425C411.087 270.454 412.39 270.071 414.061 269.278C414.453 269.096 414.798 268.827 415.07 268.492L422.336 259.633C422.399 259.558 422.44 259.467 422.452 259.371C422.465 259.274 422.45 259.176 422.409 259.087C422.367 258.999 422.301 258.924 422.219 258.872C422.136 258.82 422.041 258.793 421.943 258.794C406.987 258.751 382.81 258.082 363.817 259.006C350.816 259.636 341.967 260.153 337.272 260.557C335.459 260.706 330.679 261.258 322.932 262.214C322.913 262.216 322.895 262.212 322.878 262.205C322.861 262.197 322.847 262.185 322.836 262.17C322.825 262.155 322.819 262.137 322.817 262.119C322.815 262.101 322.818 262.082 322.825 262.065L326.14 254.173C326.189 254.062 326.264 253.966 326.359 253.894C326.454 253.821 326.565 253.775 326.681 253.759C331.249 253.143 336.783 252.427 343.284 251.613C348.624 250.947 354.183 250.621 359.961 250.636C378.848 250.692 401.58 250.724 428.157 250.731C428.568 250.731 428.971 250.638 429.338 250.46C429.704 250.281 430.024 250.022 430.271 249.701L437.176 240.81C437.27 240.686 437.329 240.538 437.344 240.383C437.36 240.228 437.332 240.072 437.263 239.932C437.195 239.792 437.089 239.674 436.957 239.59C436.825 239.507 436.673 239.462 436.517 239.461H333.543C333.458 239.461 333.374 239.439 333.298 239.398C333.223 239.358 333.158 239.299 333.111 239.228C333.064 239.156 333.035 239.074 333.027 238.989C333.019 238.904 333.032 238.818 333.065 238.739L336.252 231.154C336.34 230.944 336.49 230.766 336.681 230.642C336.873 230.519 337.097 230.457 337.325 230.464C348.978 230.835 364.083 229.731 377.903 229.837C392.682 229.957 405.542 230.141 416.483 230.389C425.618 230.602 435.009 231.898 443.985 231.547C444.228 231.537 444.467 231.474 444.685 231.362C444.903 231.251 445.095 231.093 445.249 230.899L452.663 221.339C452.732 221.249 452.775 221.143 452.789 221.031C452.803 220.92 452.787 220.806 452.742 220.702C452.698 220.599 452.627 220.509 452.537 220.441C452.446 220.374 452.34 220.332 452.228 220.319C429.772 217.827 406.675 216.825 382.938 217.313C363.874 217.71 353.687 217.919 352.377 217.94C349.551 217.975 346.598 218.142 343.518 218.439C343.363 218.455 343.206 218.43 343.064 218.367C342.921 218.304 342.797 218.204 342.704 218.078C342.611 217.952 342.552 217.803 342.533 217.647C342.513 217.491 342.534 217.332 342.594 217.186L344.931 211.609C345.147 211.1 345.504 210.664 345.959 210.35C346.414 210.036 346.949 209.857 347.501 209.835C372.365 208.893 396.272 208.967 419.224 210.058C427.623 210.462 434.053 210.88 438.514 211.311C449.044 212.331 455.595 212.806 458.166 212.735C458.69 212.718 459.204 212.587 459.67 212.35C460.137 212.113 460.544 211.777 460.864 211.365L466.44 204.173C466.518 204.071 466.569 203.951 466.586 203.824C466.604 203.697 466.588 203.568 466.541 203.45C466.494 203.331 466.416 203.228 466.317 203.15C466.217 203.072 466.099 203.022 465.973 203.005C433.695 198.706 400.794 196.281 367.27 195.728C351.733 195.466 336.351 196.129 321.126 197.715C310.836 198.791 301.067 200.533 291.819 202.941C291.43 203.04 291.07 203.229 290.768 203.492C290.465 203.756 290.228 204.088 290.077 204.46C280.389 228.116 263.159 245.941 239.312 255.788C229.355 259.902 218.981 262.363 208.188 263.17C205.016 263.404 201.748 263.23 198.384 262.65C179.108 259.321 161.241 252.941 144.783 243.508C141.54 241.646 139.408 240.105 138.389 238.887C134.745 234.511 139.716 228.477 144.847 230.676C173.917 243.161 190.438 250.253 194.411 251.953C194.535 252.005 194.669 252.03 194.804 252.027C194.938 252.025 195.071 251.994 195.193 251.937C195.315 251.88 195.424 251.798 195.512 251.696C195.601 251.595 195.667 251.476 195.707 251.347L197.226 246.557C197.305 246.317 197.291 246.056 197.187 245.826C197.082 245.596 196.896 245.413 196.663 245.314C167.643 232.744 137.953 219.919 107.594 206.839C101.844 204.361 96.5824 202.187 91.8094 200.317C90.4214 199.772 89.2458 199.556 88.2827 199.669C87.9667 199.704 87.6655 199.823 87.4098 200.014C87.1541 200.204 86.9532 200.459 86.8275 200.753L81.6756 213.022C81.6288 213.134 81.5408 213.225 81.4288 213.276C81.3168 213.327 81.1889 213.335 81.0701 213.298L48.2575 202.867C47.973 202.777 47.6643 202.803 47.3994 202.941C47.1345 203.078 46.935 203.315 46.8447 203.6L43.8811 212.905C43.7772 213.233 43.803 213.589 43.9531 213.899C44.1032 214.209 44.3663 214.45 44.6884 214.573C49.1852 216.315 55.3391 218.634 63.1501 221.53C69.6723 223.945 78.6942 227.946 90.216 233.534C123.836 249.839 151.699 266.389 190.492 289.078C211.595 301.421 233.056 312.848 254.874 323.357C263.829 327.669 271.615 329.815 281.887 333.756C288.409 336.263 294.432 338.366 299.955 340.066C325.562 347.912 353.56 355.737 383.947 363.541C384.357 363.648 384.789 363.645 385.199 363.534C385.609 363.422 385.983 363.205 386.284 362.904L405.032 344.155C405.093 344.094 405.135 344.017 405.152 343.932C405.168 343.848 405.16 343.76 405.127 343.681C405.094 343.601 405.038 343.533 404.966 343.485C404.895 343.437 404.81 343.412 404.724 343.412Z" fill="#FFB200"/>
<path d="M404.724 343.412C404.81 343.412 404.895 343.437 404.966 343.485C405.038 343.533 405.094 343.601 405.127 343.681C405.16 343.76 405.168 343.848 405.152 343.932C405.135 344.017 405.093 344.094 405.032 344.155L386.284 362.904C385.983 363.205 385.609 363.422 385.199 363.534C384.789 363.645 384.357 363.648 383.947 363.541C353.56 355.737 325.563 347.912 299.955 340.066C294.432 338.366 288.409 336.263 281.887 333.756C271.615 329.815 263.829 327.669 254.874 323.357C233.056 312.848 211.595 301.421 190.492 289.078C151.699 266.389 123.836 249.839 90.216 233.534C78.6943 227.946 69.6723 223.945 63.1501 221.53C55.3391 218.634 49.1852 216.315 44.6884 214.573C44.3663 214.45 44.1033 214.209 43.9531 213.899C43.803 213.589 43.7773 213.233 43.8811 212.905L46.8447 203.6C46.935 203.315 47.1345 203.078 47.3994 202.941C47.6643 202.803 47.973 202.777 48.2575 202.867L81.0701 213.298C81.1889 213.335 81.3169 213.327 81.4289 213.276C81.5409 213.225 81.6289 213.134 81.6756 213.022L86.8275 200.753C86.9532 200.459 87.1541 200.204 87.4098 200.014C87.6655 199.823 87.9667 199.704 88.2827 199.669C89.2458 199.556 90.4214 199.772 91.8094 200.317C96.5824 202.187 101.844 204.361 107.594 206.839C137.953 219.919 167.643 232.744 196.663 245.314C196.896 245.413 197.082 245.596 197.187 245.826C197.291 246.056 197.305 246.317 197.226 246.557L195.707 251.347C195.667 251.476 195.601 251.595 195.512 251.696C195.424 251.798 195.315 251.88 195.193 251.937C195.071 251.994 194.938 252.025 194.804 252.027C194.669 252.03 194.535 252.005 194.411 251.953C190.438 250.253 173.917 243.161 144.847 230.676C139.716 228.477 134.745 234.511 138.389 238.887C139.408 240.105 141.54 241.646 144.783 243.508C161.241 252.941 179.108 259.321 198.384 262.65C201.748 263.23 205.016 263.404 208.188 263.17C218.981 262.363 229.355 259.902 239.312 255.788C263.159 245.941 280.389 228.116 290.077 204.46C290.228 204.088 290.465 203.756 290.768 203.493C291.07 203.229 291.43 203.04 291.819 202.941C301.067 200.533 310.836 198.791 321.126 197.715C336.351 196.129 351.733 195.466 367.27 195.728C400.794 196.281 433.695 198.706 465.973 203.005C466.099 203.022 466.217 203.072 466.317 203.15C466.416 203.228 466.494 203.331 466.541 203.45C466.588 203.568 466.604 203.697 466.586 203.824C466.569 203.951 466.518 204.071 466.44 204.173L460.864 211.365C460.544 211.777 460.137 212.113 459.67 212.35C459.204 212.587 458.69 212.718 458.166 212.735C455.595 212.806 449.044 212.331 438.514 211.312C434.053 210.88 427.623 210.462 419.224 210.058C396.272 208.968 372.365 208.893 347.501 209.835C346.949 209.857 346.414 210.036 345.959 210.35C345.504 210.664 345.147 211.1 344.931 211.609L342.594 217.186C342.534 217.332 342.513 217.491 342.533 217.647C342.552 217.803 342.611 217.952 342.704 218.078C342.797 218.204 342.921 218.304 343.064 218.367C343.206 218.43 343.363 218.455 343.518 218.439C346.598 218.142 349.551 217.975 352.377 217.94C353.687 217.919 363.874 217.71 382.938 217.313C406.675 216.825 429.772 217.827 452.228 220.319C452.34 220.332 452.446 220.374 452.537 220.441C452.627 220.509 452.698 220.599 452.742 220.702C452.787 220.806 452.803 220.92 452.789 221.031C452.775 221.143 452.732 221.249 452.663 221.339L445.249 230.899C445.095 231.093 444.903 231.251 444.685 231.362C444.467 231.474 444.228 231.537 443.985 231.547C435.009 231.898 425.618 230.602 416.483 230.389C405.542 230.142 392.682 229.957 377.903 229.837C364.083 229.731 348.978 230.836 337.325 230.464C337.097 230.457 336.873 230.519 336.681 230.642C336.49 230.766 336.34 230.944 336.252 231.154L333.065 238.739C333.032 238.818 333.019 238.904 333.027 238.989C333.035 239.074 333.064 239.156 333.111 239.228C333.158 239.299 333.223 239.358 333.298 239.398C333.374 239.439 333.458 239.461 333.543 239.461H436.517C436.673 239.462 436.825 239.507 436.957 239.59C437.089 239.674 437.195 239.792 437.263 239.932C437.332 240.072 437.36 240.228 437.344 240.383C437.329 240.538 437.27 240.686 437.176 240.81L430.271 249.701C430.024 250.022 429.704 250.281 429.338 250.46C428.971 250.638 428.568 250.731 428.157 250.731C401.58 250.724 378.848 250.692 359.961 250.636C354.183 250.622 348.624 250.947 343.284 251.613C336.783 252.427 331.249 253.143 326.681 253.759C326.565 253.775 326.454 253.821 326.359 253.894C326.264 253.966 326.189 254.062 326.14 254.173L322.825 262.065C322.818 262.082 322.815 262.101 322.817 262.119C322.819 262.137 322.826 262.155 322.836 262.17C322.847 262.185 322.861 262.197 322.878 262.205C322.895 262.212 322.913 262.216 322.932 262.214C330.679 261.258 335.459 260.706 337.272 260.557C341.967 260.153 350.816 259.636 363.817 259.006C382.81 258.082 406.987 258.751 421.943 258.794C422.041 258.793 422.136 258.82 422.219 258.872C422.301 258.924 422.367 258.999 422.409 259.087C422.45 259.176 422.465 259.274 422.452 259.371C422.44 259.467 422.399 259.558 422.336 259.633L415.07 268.492C414.798 268.827 414.453 269.096 414.061 269.278C412.39 270.071 411.087 270.454 410.152 270.425C378.891 269.437 347.576 271.052 317.174 277.914C302.388 281.249 286.879 286.624 274.589 294.984C274.503 295.042 274.431 295.117 274.378 295.206C274.325 295.295 274.293 295.395 274.284 295.498C274.275 295.601 274.289 295.704 274.325 295.801C274.361 295.898 274.419 295.985 274.494 296.057C289.556 310.546 306.98 321.675 326.766 329.443C351.842 339.287 377.828 343.943 404.724 343.412Z" fill="white"/>
<path d="M486 256C486 128.975 383.025 26 256 26C128.975 26 26 128.975 26 256C26 383.025 128.975 486 256 486V496C123.452 496 16 388.548 16 256C16 123.452 123.452 16 256 16C388.548 16 496 123.452 496 256C496 388.548 388.548 496 256 496V486C383.025 486 486 383.025 486 256Z" fill="white"/>
</g>
<defs>
<clipPath id="clip0_1_123">
<rect width="512" height="512" fill="white"/>
</clipPath>
</defs>
</svg>
