<svg width="512" height="512" viewBox="0 0 512 512" fill="none" xmlns="http://www.w3.org/2000/svg">
<g clip-path="url(#clip0_1_121)">
<path d="M445.349 113.846C438.295 113.596 427.463 119.398 418.543 120.286C406.119 121.515 393.633 120.908 381.087 118.466C373.737 117.032 360.243 115.098 352.984 112.913C336.358 107.937 317.273 102.377 295.731 96.2333C280.258 91.8188 266.02 88.633 253.019 86.676C236.567 84.2184 224.393 83.8315 209.215 90.8403C205.968 92.327 201.106 96.6809 194.628 103.902C186.224 113.277 176.242 122.152 164.682 130.526C161.769 132.619 158.895 133.894 156.058 134.349C155.641 134.416 155.214 134.366 154.824 134.204C154.434 134.043 154.096 133.776 153.847 133.433C153.597 133.09 153.447 132.684 153.411 132.259C153.376 131.835 153.457 131.408 153.646 131.027C158.766 120.718 165.843 101.786 149.959 96.7112C136.837 92.5242 123.548 92.7214 110.092 97.3028C109.793 97.4045 109.53 97.5891 109.332 97.8349C109.135 98.0807 109.011 98.3776 108.976 98.6909C108.157 106.762 106.42 114.567 103.765 122.106C103.326 123.366 103.189 127.264 103.356 133.803C103.369 134.256 103.521 134.693 103.79 135.056C104.058 135.418 104.431 135.688 104.858 135.828C112.64 138.308 117.51 138.035 121.264 144.612C121.751 145.453 121.976 146.422 121.911 147.394C121.846 148.366 121.494 149.298 120.9 150.073C113.801 159.425 104.448 163.544 91.9781 170.507C88.7468 172.313 86.2589 174.702 84.5143 177.675C83.7242 179.011 83.3807 180.602 83.5263 182.252C83.6719 183.903 84.3003 185.54 85.3335 186.96C88.7013 191.625 91.8871 193.968 93.48 201.227C94.4054 205.384 95.7934 211.202 97.6442 218.681C98.8427 223.566 103.015 231.917 110.16 243.735C116.713 254.551 123.161 265.535 129.502 276.685C135.077 286.493 147.593 296.573 162.862 307.564C199.453 333.938 221.639 347.113 243.644 374.852C259.527 394.877 274.614 418.065 286.174 439.706C287.251 441.723 288.654 443.286 290.384 444.393C290.725 444.608 291.119 444.727 291.522 444.738C291.925 444.748 292.323 444.65 292.673 444.454C293.024 444.258 293.313 443.971 293.511 443.623C293.709 443.276 293.808 442.882 293.797 442.482C293.721 439.342 293.205 436.429 292.25 433.744C278.278 394.65 271.064 371.12 255.522 346.317C248.225 334.666 237.583 324.532 223.596 315.915C215.541 310.955 210.648 306.859 205.119 299.099C192.133 280.895 181.87 262.394 174.33 243.598C167.686 227.01 142.382 224.256 147.843 205.323C158.584 168.004 186.459 142.586 225.849 140.106C244.842 138.908 263.79 140.402 282.692 144.589C296.315 147.593 308.254 149.861 318.51 151.393C351.323 156.285 380.61 150.187 411.17 138.65C425.294 133.325 437.21 126.566 446.919 118.374C447.314 118.039 447.598 117.592 447.734 117.092C447.87 116.592 447.853 116.063 447.683 115.573C447.513 115.084 447.199 114.657 446.783 114.349C446.367 114.041 445.867 113.865 445.349 113.846Z" stroke="#807E54" stroke-width="4.55111"/>
<path d="M210.352 256.228C211.536 254.513 212.582 252.382 213.493 249.833C217.558 238.44 221.632 226.683 225.712 214.562C230.582 200.112 237.363 186.641 245.897 172.51C248.036 168.975 249.348 165.66 249.833 162.566C250.071 161.065 249.739 159.518 248.898 158.202C248.056 156.885 246.759 155.883 245.237 155.375C237.029 152.614 230.908 155.269 226.873 163.339C214.297 188.507 206.567 216.375 203.685 246.943C203.382 250.25 203.746 253.156 204.777 255.659C204.998 256.189 205.357 256.649 205.818 256.992C206.279 257.335 206.824 257.546 207.395 257.604C207.967 257.663 208.543 257.565 209.063 257.323C209.584 257.081 210.029 256.702 210.352 256.228ZM233.381 297.756C233.53 298.264 233.838 298.711 234.261 299.029C234.684 299.348 235.198 299.521 235.728 299.523C236.257 299.526 236.773 299.358 237.199 299.043C237.625 298.729 237.938 298.286 238.091 297.779C248.513 264.374 260.574 241.391 279.984 204.891C283.974 197.366 288.707 187.415 294.184 175.036C294.775 173.805 295.095 172.462 295.121 171.097C295.147 169.732 294.879 168.377 294.335 167.125C293.79 165.873 292.983 164.753 291.968 163.841C290.952 162.928 289.752 162.245 288.449 161.837L288.176 161.746C285.289 160.844 282.176 160.977 279.376 162.124C276.576 163.271 274.264 165.358 272.839 168.027C261.552 189.205 251.684 211.998 243.234 236.407C236.817 254.885 227.988 279.984 233.381 297.756ZM290.315 392.806C290.6 393.189 290.984 393.486 291.425 393.664C291.867 393.843 292.35 393.896 292.82 393.819C293.29 393.741 293.73 393.536 294.091 393.224C294.452 392.913 294.72 392.509 294.866 392.055C308.315 351.255 323.129 310.067 344.405 276.708C362.564 248.263 373.1 231.705 376.013 227.032C386.283 210.451 393.55 194.605 397.813 179.496C400.028 171.638 397.35 166.737 389.78 164.796C381.193 162.611 375.034 165.668 371.302 173.966C358.172 203.162 346.34 226.577 332.595 252.314C325.313 265.921 319.685 277.618 315.711 287.403C304.833 314.277 295.344 337.579 290.77 362.951C289.109 372.213 286.151 387.254 290.315 392.806ZM269.198 338.853C269.32 338.595 272.21 329.083 277.868 310.317C292.113 263.145 323.561 225.371 343.745 181.02C346.158 175.718 347.841 169.62 341.197 166.571C328.636 160.791 322.128 168.164 315.893 179.655C302.194 204.808 293.531 221.07 289.906 228.443C274.447 259.83 265.398 293.478 262.758 329.387C262.455 333.543 262.637 336.418 263.305 338.011C264.002 339.725 265.17 340.544 266.809 340.469C267.314 340.449 267.805 340.288 268.226 340.002C268.648 339.717 268.985 339.319 269.198 338.853Z" stroke="#807E54" stroke-width="4.55111"/>
<path d="M512 0V512H0V0H512ZM445.349 113.846C438.295 113.596 427.463 119.398 418.543 120.286C406.118 121.515 393.633 120.908 381.087 118.465C373.737 117.032 360.243 115.098 352.984 112.913C336.357 107.937 317.273 102.377 295.731 96.2332C280.257 91.8187 266.02 88.6329 253.019 86.6759C236.567 84.2183 224.393 83.8315 209.215 90.8402C205.968 92.3269 201.106 96.6808 194.628 103.902C186.224 113.277 176.242 122.152 164.682 130.526C161.769 132.619 158.894 133.894 156.058 134.349C155.641 134.416 155.214 134.366 154.824 134.204C154.434 134.043 154.096 133.776 153.846 133.433C153.597 133.09 153.447 132.683 153.411 132.259C153.376 131.835 153.457 131.408 153.646 131.026C158.766 120.718 165.842 101.786 149.959 96.7111C136.837 92.5241 123.548 92.7213 110.091 97.3028C109.793 97.4045 109.53 97.589 109.332 97.8348C109.135 98.0806 109.011 98.3775 108.976 98.6908C108.157 106.761 106.42 114.567 103.765 122.106C103.325 123.365 103.189 127.264 103.356 133.803C103.369 134.256 103.521 134.693 103.79 135.056C104.058 135.418 104.431 135.688 104.858 135.828C112.64 138.308 117.51 138.035 121.264 144.612C121.751 145.453 121.976 146.422 121.911 147.394C121.846 148.366 121.494 149.298 120.9 150.073C113.801 159.425 104.448 163.544 91.978 170.507C88.7467 172.313 86.2587 174.702 84.5141 177.675C83.7241 179.01 83.3805 180.602 83.5262 182.252C83.6718 183.903 84.3002 185.54 85.3333 186.96C88.7012 191.625 91.8869 193.968 93.4798 201.227C94.4052 205.384 95.7933 211.202 97.6441 218.681C98.8426 223.566 103.014 231.917 110.16 243.735C116.713 254.551 123.161 265.535 129.502 276.685C135.077 286.492 147.593 296.573 162.862 307.564C199.452 333.938 221.639 347.113 243.644 374.852C259.527 394.877 274.614 418.065 286.174 439.706C287.251 441.723 288.654 443.286 290.384 444.393C290.725 444.608 291.118 444.727 291.522 444.737C291.925 444.748 292.323 444.65 292.673 444.454C293.024 444.258 293.313 443.971 293.511 443.623C293.709 443.276 293.808 442.882 293.797 442.482C293.721 439.342 293.205 436.429 292.25 433.744C278.278 394.65 271.064 371.12 255.522 346.317C248.225 334.666 237.583 324.532 223.596 315.915C215.541 310.955 210.648 306.859 205.119 299.099C192.133 280.895 181.87 262.394 174.33 243.598C167.686 227.009 142.382 224.256 147.843 205.323C158.583 168.004 186.459 142.586 225.849 140.106C244.842 138.908 263.79 140.402 282.692 144.589C296.315 147.593 308.254 149.861 318.51 151.393C351.323 156.285 380.609 150.187 411.17 138.65C425.294 133.325 437.21 126.566 446.919 118.374C447.314 118.039 447.598 117.592 447.734 117.092C447.87 116.592 447.852 116.063 447.683 115.573C447.513 115.084 447.199 114.657 446.783 114.349C446.367 114.041 445.867 113.865 445.349 113.846ZM210.352 256.228C211.536 254.513 212.582 252.382 213.493 249.833C217.558 238.44 221.632 226.683 225.712 214.562C230.582 200.112 237.363 186.641 245.897 172.51C248.036 168.975 249.348 165.66 249.833 162.566C250.071 161.065 249.739 159.518 248.898 158.202C248.056 156.885 246.759 155.883 245.237 155.375C237.029 152.614 230.908 155.269 226.873 163.339C214.297 188.507 206.567 216.375 203.685 246.943C203.382 250.25 203.746 253.156 204.777 255.659C204.998 256.189 205.357 256.65 205.818 256.992C206.279 257.335 206.824 257.546 207.395 257.604C207.967 257.663 208.543 257.566 209.063 257.323C209.584 257.081 210.029 256.702 210.352 256.228ZM233.381 297.756C233.53 298.264 233.838 298.711 234.261 299.029C234.684 299.348 235.198 299.521 235.728 299.523C236.257 299.526 236.773 299.358 237.199 299.043C237.625 298.729 237.938 298.286 238.091 297.779C248.513 264.374 260.574 241.391 279.984 204.891C283.974 197.367 288.707 187.415 294.184 175.036C294.775 173.805 295.095 172.462 295.121 171.097C295.147 169.732 294.879 168.378 294.335 167.125C293.79 165.873 292.983 164.753 291.968 163.841C290.952 162.928 289.752 162.245 288.449 161.838L288.176 161.746C285.289 160.844 282.176 160.977 279.376 162.124C276.576 163.271 274.264 165.358 272.839 168.027C261.552 189.205 251.684 211.998 243.234 236.407C236.817 254.885 227.988 279.984 233.381 297.756ZM290.315 392.806C290.6 393.189 290.984 393.486 291.426 393.664C291.867 393.843 292.35 393.896 292.82 393.819C293.29 393.741 293.73 393.536 294.091 393.225C294.452 392.913 294.72 392.509 294.866 392.055C308.315 351.255 323.129 310.067 344.405 276.708C362.564 248.263 373.1 231.705 376.013 227.032C386.283 210.451 393.55 194.606 397.813 179.496C400.028 171.638 397.35 166.738 389.78 164.796C381.193 162.611 375.034 165.668 371.302 173.966C358.172 203.162 346.34 226.577 332.595 252.314C325.313 265.921 319.685 277.618 315.711 287.403C304.833 314.277 295.344 337.579 290.771 362.951C289.109 372.213 286.151 387.254 290.315 392.806ZM269.198 338.853C269.32 338.595 272.21 329.083 277.868 310.318C292.113 263.145 323.561 225.371 343.745 181.02C346.158 175.718 347.841 169.62 341.197 166.571C328.636 160.791 322.128 168.164 315.893 179.655C302.194 204.808 293.531 221.07 289.906 228.443C274.447 259.831 265.398 293.478 262.758 329.387C262.455 333.543 262.637 336.418 263.305 338.011C264.002 339.725 265.171 340.544 266.809 340.469C267.314 340.449 267.805 340.288 268.226 340.002C268.648 339.717 268.985 339.319 269.198 338.853Z" fill="#013195"/>
<path d="M445.349 113.846C445.867 113.865 446.367 114.041 446.783 114.349C447.199 114.657 447.513 115.084 447.683 115.573C447.853 116.063 447.87 116.592 447.734 117.092C447.598 117.592 447.314 118.039 446.919 118.374C437.21 126.566 425.294 133.325 411.17 138.65C380.61 150.187 351.323 156.285 318.51 151.393C308.255 149.861 296.315 147.593 282.692 144.589C263.79 140.402 244.842 138.908 225.849 140.106C186.459 142.586 158.584 168.004 147.843 205.323C142.382 224.256 167.686 227.01 174.33 243.598C181.87 262.394 192.133 280.895 205.119 299.099C210.648 306.859 215.541 310.955 223.596 315.915C237.583 324.532 248.225 334.666 255.522 346.317C271.064 371.12 278.278 394.65 292.25 433.744C293.205 436.429 293.721 439.342 293.797 442.482C293.808 442.882 293.709 443.276 293.511 443.623C293.313 443.971 293.024 444.258 292.673 444.454C292.323 444.65 291.925 444.748 291.522 444.738C291.119 444.727 290.725 444.608 290.384 444.393C288.654 443.286 287.251 441.723 286.174 439.706C274.614 418.065 259.527 394.877 243.644 374.852C221.639 347.113 199.453 333.938 162.862 307.564C147.593 296.573 135.077 286.493 129.502 276.685C123.161 265.535 116.713 254.551 110.16 243.735C103.015 231.917 98.8427 223.566 97.6442 218.681C95.7934 211.202 94.4054 205.384 93.48 201.227C91.8871 193.968 88.7013 191.625 85.3335 186.96C84.3003 185.54 83.6719 183.903 83.5263 182.252C83.3807 180.602 83.7242 179.011 84.5143 177.675C86.2589 174.702 88.7468 172.313 91.9781 170.507C104.448 163.544 113.801 159.425 120.9 150.073C121.494 149.298 121.846 148.366 121.911 147.394C121.976 146.422 121.751 145.453 121.264 144.612C117.51 138.035 112.64 138.308 104.858 135.828C104.431 135.688 104.058 135.418 103.79 135.056C103.521 134.693 103.369 134.256 103.356 133.803C103.189 127.264 103.326 123.366 103.765 122.106C106.42 114.567 108.157 106.762 108.976 98.6909C109.011 98.3776 109.135 98.0807 109.332 97.8349C109.53 97.5891 109.793 97.4045 110.092 97.3028C123.548 92.7214 136.837 92.5242 149.959 96.7112C165.843 101.786 158.766 120.718 153.646 131.027C153.457 131.408 153.376 131.835 153.411 132.259C153.447 132.684 153.597 133.09 153.847 133.433C154.096 133.776 154.434 134.043 154.824 134.204C155.214 134.366 155.641 134.416 156.058 134.349C158.895 133.894 161.769 132.619 164.682 130.526C176.242 122.152 186.224 113.277 194.628 103.902C201.106 96.6809 205.968 92.327 209.215 90.8403C224.393 83.8315 236.567 84.2184 253.019 86.676C266.02 88.633 280.258 91.8188 295.731 96.2333C317.273 102.377 336.358 107.937 352.984 112.913C360.243 115.098 373.737 117.032 381.087 118.466C393.633 120.908 406.119 121.515 418.543 120.286C427.463 119.398 438.295 113.596 445.349 113.846Z" fill="#FFCB12"/>
<path d="M210.352 256.228C210.029 256.702 209.584 257.081 209.063 257.323C208.543 257.565 207.967 257.663 207.395 257.604C206.824 257.546 206.279 257.335 205.818 256.992C205.357 256.649 204.998 256.189 204.777 255.659C203.746 253.156 203.382 250.25 203.685 246.943C206.567 216.375 214.297 188.507 226.873 163.339C230.908 155.269 237.029 152.614 245.237 155.375C246.759 155.883 248.056 156.885 248.898 158.202C249.739 159.518 250.071 161.065 249.833 162.566C249.348 165.66 248.036 168.975 245.897 172.51C237.363 186.641 230.582 200.112 225.712 214.562C221.632 226.683 217.558 238.44 213.493 249.833C212.582 252.382 211.536 254.513 210.352 256.228ZM233.381 297.756C227.988 279.984 236.817 254.885 243.234 236.407C251.684 211.998 261.552 189.205 272.839 168.027C274.264 165.358 276.576 163.271 279.376 162.124C282.176 160.977 285.289 160.844 288.176 161.746L288.449 161.837C289.752 162.245 290.952 162.928 291.968 163.841C292.983 164.753 293.79 165.873 294.335 167.125C294.879 168.377 295.147 169.732 295.121 171.097C295.095 172.462 294.775 173.805 294.184 175.036C288.707 187.415 283.974 197.366 279.984 204.891C260.574 241.391 248.513 264.374 238.091 297.779C237.938 298.286 237.625 298.729 237.199 299.043C236.773 299.358 236.257 299.526 235.728 299.523C235.198 299.521 234.684 299.348 234.261 299.029C233.838 298.711 233.53 298.264 233.381 297.756ZM290.315 392.806C286.151 387.254 289.109 372.213 290.77 362.951C295.344 337.579 304.833 314.277 315.711 287.403C319.685 277.618 325.313 265.921 332.595 252.314C346.34 226.577 358.172 203.162 371.302 173.966C375.034 165.668 381.193 162.611 389.78 164.796C397.35 166.737 400.028 171.638 397.813 179.496C393.55 194.605 386.283 210.451 376.013 227.032C373.1 231.705 362.564 248.263 344.405 276.708C323.129 310.067 308.315 351.255 294.866 392.055C294.72 392.509 294.452 392.913 294.091 393.224C293.73 393.536 293.29 393.741 292.82 393.819C292.35 393.896 291.867 393.843 291.425 393.664C290.984 393.486 290.6 393.189 290.315 392.806ZM269.198 338.853C268.985 339.319 268.648 339.717 268.226 340.002C267.805 340.288 267.314 340.449 266.809 340.469C265.17 340.544 264.002 339.725 263.305 338.011C262.637 336.418 262.455 333.543 262.758 329.387C265.398 293.478 274.447 259.83 289.906 228.443C293.532 221.07 302.194 204.808 315.893 179.655C322.128 168.164 328.636 160.791 341.197 166.571C347.841 169.62 346.158 175.718 343.745 181.02C323.561 225.371 292.113 263.145 277.868 310.317C272.21 329.083 269.32 338.595 269.198 338.853Z" fill="#FFCB12"/>
</g>
<defs>
<clipPath id="clip0_1_121">
<rect width="512" height="512" fill="white"/>
</clipPath>
</defs>
</svg>
