<svg width="512" height="512" viewBox="0 0 512 512" fill="none" xmlns="http://www.w3.org/2000/svg">
<g clip-path="url(#clip0_1_122)">
<path d="M264.806 0C269.418 0.576474 274.038 1.03159 278.665 1.36533C330.957 5.16551 382.589 27.2839 421.319 60.507C478.087 109.204 508.314 172.009 512 248.923V264.647C511.469 268.531 511.082 272.43 510.839 276.343C507.813 324.972 488.516 374.033 459.617 411.261C411.102 473.733 346.203 507.312 264.92 512H248.354C122.652 506.448 22.0046 417.132 2.68516 292.932C1.4336 284.9 1.29707 274.705 0 265.648V248.9C4.17185 167.208 37.5542 101.884 100.147 52.9294C136.784 24.2802 184.866 5.09724 232.721 1.38809C238.061 0.978489 243.401 0.515793 248.741 0H264.806ZM271.974 123.039C234.018 122.053 206.127 122.379 188.302 124.018C161.997 126.453 138.559 133.234 119.558 152.485C93.093 179.337 89.4293 223.164 116.144 250.812C124.579 259.52 132.149 265.982 138.854 270.199C156.892 281.501 169.347 289.519 176.219 294.252C186.209 301.147 197.131 309.635 198.383 322.31C199.703 335.531 190.441 346.817 179.177 352.21C168.421 357.368 155.724 359.925 141.084 359.879C122.44 359.803 104.061 357.558 85.9477 353.143C85.6134 353.056 85.258 353.099 84.9508 353.263C84.6436 353.427 84.4068 353.701 84.2866 354.031L70.474 392.829C70.3922 393.053 70.3563 393.291 70.3682 393.529C70.3802 393.767 70.4397 394.001 70.5434 394.217C70.6472 394.433 70.793 394.626 70.9725 394.787C71.152 394.947 71.3615 395.07 71.589 395.15C77.0958 397.092 82.7771 398.541 88.6329 399.497C122.971 405.094 158.447 406.869 191.215 394.9C225.143 382.521 253.178 352.666 252.518 314.732C252.169 295.147 243.841 278.217 227.533 263.942C207.804 246.67 184.889 234.792 165.888 219.887C155.011 211.346 151.529 200.75 155.443 188.097C160.313 172.26 182.636 167.936 196.836 167.686C219.409 167.306 238.729 167.223 254.794 167.435C255.155 167.443 255.509 167.34 255.81 167.141C256.111 166.942 256.344 166.655 256.478 166.32L273.112 124.746C273.185 124.558 273.212 124.356 273.191 124.156C273.169 123.956 273.099 123.764 272.988 123.596C272.876 123.429 272.726 123.291 272.549 123.194C272.373 123.097 272.176 123.044 271.974 123.039ZM283.921 166.958H363.27C363.338 166.956 363.406 166.971 363.467 167.003C363.527 167.034 363.579 167.08 363.618 167.137C363.656 167.193 363.68 167.259 363.687 167.327C363.694 167.395 363.683 167.463 363.657 167.526L293.274 343.563C293.203 343.742 293.178 343.935 293.199 344.126C293.22 344.317 293.287 344.499 293.395 344.659C293.502 344.818 293.647 344.948 293.816 345.039C293.985 345.129 294.174 345.178 294.366 345.179H343.859C344.155 345.18 344.443 345.092 344.687 344.925C344.931 344.758 345.118 344.522 345.225 344.246L431.445 128.614C431.867 127.574 431.867 126.411 431.447 125.371C431.026 124.331 430.218 123.495 429.193 123.039C428.161 122.569 426.932 122.334 425.506 122.334C380.92 122.349 339.687 122.341 301.807 122.311C301.397 122.31 300.996 122.433 300.655 122.664C300.315 122.895 300.05 123.224 299.895 123.608L283.056 165.706C283.001 165.843 282.981 165.992 282.998 166.14C283.014 166.287 283.068 166.428 283.153 166.552C283.238 166.675 283.353 166.776 283.487 166.847C283.62 166.918 283.77 166.956 283.921 166.958Z" fill="#BED600"/>
<path d="M271.974 123.039C234.018 122.053 206.127 122.379 188.302 124.018C161.997 126.453 138.559 133.234 119.558 152.485C93.093 179.337 89.4293 223.164 116.144 250.812C124.579 259.52 132.149 265.982 138.854 270.199C156.892 281.501 169.347 289.519 176.219 294.252C186.209 301.147 197.131 309.635 198.383 322.31C199.703 335.531 190.441 346.817 179.177 352.21C168.421 357.368 155.724 359.925 141.084 359.879C122.44 359.803 104.061 357.558 85.9477 353.143C85.6134 353.056 85.258 353.099 84.9508 353.263C84.6436 353.427 84.4068 353.701 84.2866 354.031L70.474 392.829C70.3922 393.053 70.3563 393.291 70.3682 393.529C70.3802 393.767 70.4397 394.001 70.5434 394.217C70.6472 394.433 70.793 394.626 70.9725 394.787C71.152 394.947 71.3615 395.07 71.589 395.15C77.0958 397.092 82.7771 398.541 88.6329 399.497C122.971 405.094 158.447 406.869 191.215 394.9C225.143 382.521 253.178 352.666 252.518 314.732C252.169 295.147 243.841 278.217 227.533 263.942C207.804 246.67 184.889 234.792 165.888 219.887C155.011 211.346 151.529 200.75 155.443 188.097C160.313 172.26 182.636 167.936 196.836 167.686C219.409 167.306 238.729 167.223 254.794 167.435C255.155 167.443 255.509 167.34 255.81 167.141C256.111 166.942 256.344 166.655 256.478 166.32L273.112 124.746C273.185 124.558 273.212 124.356 273.191 124.156C273.169 123.956 273.099 123.764 272.988 123.596C272.876 123.429 272.726 123.291 272.549 123.194C272.373 123.097 272.176 123.044 271.974 123.039Z" fill="white"/>
<path d="M283.921 166.958H363.27C363.338 166.956 363.406 166.971 363.467 167.003C363.527 167.034 363.579 167.08 363.618 167.137C363.656 167.193 363.68 167.259 363.687 167.327C363.694 167.395 363.683 167.463 363.657 167.526L293.274 343.563C293.203 343.742 293.178 343.935 293.199 344.126C293.22 344.317 293.287 344.499 293.395 344.659C293.502 344.818 293.647 344.948 293.816 345.039C293.985 345.129 294.174 345.178 294.366 345.179H343.859C344.155 345.18 344.443 345.092 344.687 344.925C344.931 344.758 345.118 344.522 345.225 344.246L431.445 128.614C431.867 127.574 431.867 126.411 431.447 125.371C431.026 124.331 430.218 123.495 429.193 123.039C428.161 122.569 426.932 122.334 425.506 122.334C380.92 122.349 339.687 122.341 301.807 122.311C301.397 122.31 300.996 122.433 300.655 122.664C300.315 122.895 300.05 123.224 299.895 123.608L283.056 165.706C283.001 165.843 282.981 165.992 282.998 166.14C283.014 166.287 283.068 166.428 283.153 166.552C283.238 166.675 283.353 166.776 283.487 166.847C283.62 166.918 283.77 166.956 283.921 166.958Z" fill="white"/>
</g>
<defs>
<clipPath id="clip0_1_122">
<rect width="512" height="512" fill="white"/>
</clipPath>
</defs>
</svg>
