<svg width="512" height="512" viewBox="0 0 512 512" fill="none" xmlns="http://www.w3.org/2000/svg">
<path d="M224.026 256.22C224.026 270.32 224.029 277.446 224.036 277.6C224.038 277.645 224.057 277.687 224.089 277.719C224.121 277.75 224.164 277.767 224.209 277.767H273.826C273.91 277.767 273.989 277.801 274.048 277.859C274.107 277.918 274.14 277.998 274.14 278.082V328.107C274.14 328.129 274.145 328.151 274.153 328.171C274.162 328.192 274.174 328.21 274.19 328.226C274.205 328.241 274.224 328.254 274.244 328.262C274.264 328.271 274.286 328.275 274.308 328.275C280.336 328.282 287.438 328.285 295.614 328.285C303.794 328.285 310.898 328.282 316.926 328.275C316.948 328.275 316.97 328.271 316.99 328.262C317.01 328.254 317.029 328.241 317.045 328.226C317.06 328.21 317.072 328.192 317.081 328.171C317.089 328.151 317.094 328.129 317.094 328.107V278.082C317.094 277.998 317.127 277.918 317.186 277.859C317.245 277.801 317.325 277.767 317.408 277.767H367.025C367.07 277.767 367.113 277.75 367.145 277.719C367.178 277.687 367.196 277.645 367.198 277.6C367.201 277.443 367.203 270.316 367.203 256.22C367.203 242.121 367.201 234.994 367.198 234.84C367.196 234.796 367.178 234.753 367.145 234.722C367.113 234.69 367.07 234.673 367.025 234.673H317.408C317.325 234.673 317.245 234.64 317.186 234.581C317.127 234.522 317.094 234.442 317.094 234.358V184.333C317.094 184.288 317.076 184.246 317.045 184.214C317.013 184.183 316.97 184.165 316.926 184.165C310.898 184.158 303.794 184.155 295.614 184.155C287.438 184.155 280.336 184.158 274.308 184.165C274.264 184.165 274.221 184.183 274.19 184.214C274.158 184.246 274.14 184.288 274.14 184.333V234.358C274.14 234.442 274.107 234.522 274.048 234.581C273.989 234.64 273.91 234.673 273.826 234.673H224.209C224.164 234.673 224.121 234.69 224.089 234.722C224.057 234.753 224.038 234.796 224.036 234.84C224.029 234.998 224.026 242.124 224.026 256.22Z" stroke="#F38082" stroke-width="1.04777"/>
<path d="M287.505 136.817H411.859C411.89 136.817 411.92 136.824 411.948 136.837C411.976 136.85 412 136.87 412.019 136.894C412.039 136.918 412.052 136.947 412.059 136.977C412.065 137.007 412.065 137.038 412.058 137.068L353.76 375.026C353.75 375.071 353.724 375.111 353.688 375.139C353.652 375.168 353.607 375.183 353.561 375.183H100.264C100.226 375.183 100.189 375.171 100.157 375.151C100.125 375.13 100.1 375.101 100.083 375.067C100.067 375.033 100.061 374.994 100.065 374.957C100.069 374.919 100.083 374.883 100.107 374.853L287.342 136.895C287.362 136.871 287.386 136.851 287.414 136.837C287.443 136.823 287.474 136.816 287.505 136.817ZM224.026 256.22C224.026 270.319 224.029 277.446 224.036 277.6C224.038 277.645 224.057 277.687 224.089 277.719C224.121 277.75 224.164 277.767 224.209 277.767H273.826C273.91 277.767 273.99 277.8 274.049 277.859C274.107 277.918 274.141 277.998 274.141 278.082V328.107C274.141 328.129 274.145 328.151 274.153 328.171C274.162 328.192 274.174 328.21 274.19 328.226C274.205 328.241 274.224 328.254 274.244 328.262C274.264 328.27 274.286 328.275 274.308 328.275C280.336 328.282 287.438 328.285 295.615 328.285C303.794 328.285 310.898 328.282 316.926 328.275C316.948 328.275 316.97 328.27 316.99 328.262C317.011 328.254 317.029 328.241 317.045 328.226C317.06 328.21 317.073 328.192 317.081 328.171C317.089 328.151 317.094 328.129 317.094 328.107V278.082C317.094 277.998 317.127 277.918 317.186 277.859C317.245 277.8 317.325 277.767 317.408 277.767H367.025C367.07 277.767 367.113 277.75 367.145 277.719C367.178 277.687 367.197 277.645 367.198 277.6C367.201 277.442 367.203 270.316 367.203 256.22C367.203 242.121 367.201 234.994 367.198 234.84C367.197 234.795 367.178 234.753 367.145 234.721C367.113 234.69 367.07 234.673 367.025 234.673H317.408C317.325 234.673 317.245 234.64 317.186 234.581C317.127 234.522 317.094 234.442 317.094 234.358V184.333C317.094 184.288 317.076 184.246 317.045 184.214C317.013 184.183 316.971 184.165 316.926 184.165C310.898 184.158 303.794 184.155 295.615 184.155C287.438 184.155 280.336 184.158 274.308 184.165C274.264 184.165 274.221 184.183 274.19 184.214C274.158 184.246 274.141 184.288 274.141 184.333V234.358C274.141 234.442 274.107 234.522 274.049 234.581C273.99 234.64 273.91 234.673 273.826 234.673H224.209C224.164 234.673 224.121 234.69 224.089 234.721C224.057 234.753 224.038 234.795 224.036 234.84C224.029 234.998 224.026 242.124 224.026 256.22Z" fill="#E60005"/>
<path d="M295.614 184.155C303.794 184.155 310.898 184.158 316.926 184.165C316.97 184.165 317.013 184.183 317.045 184.214C317.076 184.246 317.094 184.288 317.094 184.333V234.358C317.094 234.442 317.127 234.522 317.186 234.581C317.245 234.64 317.325 234.673 317.408 234.673H367.025C367.07 234.673 367.113 234.69 367.145 234.722C367.178 234.753 367.196 234.796 367.198 234.84C367.201 234.994 367.203 242.121 367.203 256.22C367.203 270.316 367.201 277.443 367.198 277.6C367.196 277.645 367.178 277.687 367.145 277.719C367.113 277.75 367.07 277.767 367.025 277.767H317.408C317.325 277.767 317.245 277.801 317.186 277.859C317.127 277.918 317.094 277.998 317.094 278.082V328.107C317.094 328.129 317.089 328.151 317.081 328.171C317.072 328.192 317.06 328.21 317.045 328.226C317.029 328.241 317.01 328.254 316.99 328.262C316.97 328.271 316.948 328.275 316.926 328.275C310.898 328.282 303.794 328.285 295.614 328.285C287.438 328.285 280.336 328.282 274.308 328.275C274.286 328.275 274.264 328.271 274.244 328.262C274.224 328.254 274.205 328.241 274.19 328.226C274.174 328.21 274.162 328.192 274.153 328.171C274.145 328.151 274.14 328.129 274.14 328.107V278.082C274.14 277.998 274.107 277.918 274.048 277.859C273.989 277.801 273.91 277.767 273.826 277.767H224.209C224.164 277.767 224.121 277.75 224.089 277.719C224.057 277.687 224.038 277.645 224.036 277.6C224.029 277.446 224.026 270.32 224.026 256.22C224.026 242.124 224.029 234.998 224.036 234.84C224.038 234.796 224.057 234.753 224.089 234.722C224.121 234.69 224.164 234.673 224.209 234.673H273.826C273.91 234.673 273.989 234.64 274.048 234.581C274.107 234.522 274.14 234.442 274.14 234.358V184.333C274.14 184.288 274.158 184.246 274.19 184.214C274.221 184.183 274.264 184.165 274.308 184.165C280.336 184.158 287.438 184.155 295.614 184.155Z" fill="white"/>
</svg>
