<svg width="512" height="512" viewBox="0 0 512 512" fill="none" xmlns="http://www.w3.org/2000/svg">
<circle cx="256" cy="256" r="255" fill="white"/>
<path d="M66.8752 397.896C69.0305 397.447 72.2449 396.603 76.5185 395.365C76.5449 395.358 76.5718 395.343 76.595 395.324C76.6182 395.305 76.6364 395.282 76.6469 395.259C76.6573 395.236 76.6595 395.214 76.653 395.196C76.6465 395.179 76.6317 395.167 76.6109 395.162C76.5801 395.162 76.5524 395.156 76.5277 395.144C76.5253 395.144 76.5229 395.143 76.5212 395.141C76.5195 395.139 76.5185 395.137 76.5185 395.135C76.5185 395.132 76.5195 395.13 76.5212 395.128C76.5229 395.126 76.5253 395.125 76.5277 395.125C76.9649 395.101 77.2051 395.082 77.2482 395.07C305.047 329.815 431.89 293.449 457.778 285.974C460.29 285.253 462.35 282.741 460.179 280.404C459.409 279.573 458.504 279.191 457.464 279.259C397.196 283.458 340.747 287.399 288.116 291.082C288.071 291.084 288.027 291.072 287.989 291.049C287.951 291.025 287.921 290.99 287.903 290.949C287.885 290.908 287.879 290.863 287.888 290.819C287.896 290.775 287.918 290.735 287.949 290.703C305.259 274.123 319.77 253.774 324.971 230.34C329.835 208.412 327.828 187.112 318.948 166.44C303.938 131.46 274.085 104.193 242.624 83.9183C210.766 63.3848 175.685 47.7192 139.578 35.545C139.518 35.5259 139.465 35.4893 139.426 35.4396C139.386 35.39 139.363 35.3295 139.358 35.2656C139.353 35.2017 139.367 35.1373 139.398 35.0803C139.429 35.0232 139.476 34.9761 139.532 34.9447C162.082 23.0723 185.821 14.8638 210.748 10.3193C278.084 -1.95645 347.619 13.7923 402.763 54.3512C466.192 100.979 503.278 172.804 504.895 251.834C506.465 329.064 470.524 404.14 409.155 452.024C372.472 480.652 330.58 497.753 283.479 503.325C194.574 513.837 106.529 474.229 53.9345 402.284C53.8974 402.236 53.8727 402.18 53.8626 402.12C53.8525 402.06 53.8572 401.999 53.8764 401.941C53.8955 401.884 53.9286 401.832 53.9725 401.79C54.0165 401.748 54.07 401.718 54.1284 401.702L66.9584 398.137C66.9685 398.134 66.9776 398.129 66.9843 398.123C66.991 398.116 66.9949 398.108 66.9953 398.1C66.9768 398.013 66.9399 397.958 66.8845 397.933C66.8796 397.935 66.8744 397.934 66.8701 397.931C66.8657 397.929 66.8626 397.924 66.8614 397.919C66.8602 397.915 66.8609 397.909 66.8635 397.905C66.8661 397.901 66.8703 397.898 66.8752 397.896Z" fill="#C90119"/>
<path d="M122.093 44.9664C122.175 44.9124 122.273 44.886 122.373 44.891C122.472 44.8959 122.568 44.932 122.647 44.9941C187.268 95.3717 206.019 183.676 186.215 260.129C176.72 296.771 157.165 327.992 126.637 350.871C115.892 358.932 104.22 365.887 91.6207 371.737C76.6693 378.69 61.1977 384.324 45.2056 388.641C45.0779 388.676 44.9417 388.668 44.817 388.618C44.6923 388.568 44.5857 388.479 44.5129 388.364C20.491 349.976 7.76879 307.92 6.34632 262.198C3.63993 174.965 48.4293 91.6216 122.093 44.9664Z" fill="#C90119"/>
</svg>
